<?xml version="1.0" encoding="UTF-8"?>
<svg width="248px" height="512px" viewBox="0 0 248 512" version="1.1" xmlns="http://www.w3.org/2000/svg" xmlns:xlink="http://www.w3.org/1999/xlink">
    <!-- Generator: Sketch 43 (38999) - http://www.bohemiancoding.com/sketch -->
    <title>fridge</title>
    <desc>Created with Sketch.</desc>
    <defs></defs>
    <g id="Page-1" stroke="none" stroke-width="1" fill="none" fill-rule="evenodd">
        <g id="fridge" fill-rule="nonzero">
            <g id="Group" transform="translate(9.000000, 485.000000)" fill="#AFB9D2">
                <path d="M26.724,27 L9.069,27 C4.194,27 0.241,23.047 0.241,18.172 L0.241,0.517 L35.551,0.517 L35.551,18.172 C35.552,23.047 31.599,27 26.724,27 Z" id="Shape"></path>
                <path d="M220.931,27 L203.276,27 C198.401,27 194.448,23.047 194.448,18.172 L194.448,0.517 L229.758,0.517 L229.758,18.172 C229.759,23.047 225.806,27 220.931,27 Z" id="Shape"></path>
            </g>
            <path d="M229.931,494.345 L18.069,494.345 C8.318,494.345 0.414,486.441 0.414,476.69 L0.414,17.655 C0.414,7.904 8.318,0 18.069,0 L229.931,0 C239.682,0 247.586,7.904 247.586,17.655 L247.586,476.69 C247.586,486.441 239.682,494.345 229.931,494.345 Z" id="Shape" fill="#00D7D7"></path>
            <rect id="Rectangle-path" fill="#00BEBE" x="0.414" y="158.897" width="247.172" height="17.655"></rect>
            <g id="Group" transform="translate(141.000000, 123.000000)" fill="#E4EAF6">
                <path d="M80.103,18.241 L9.482,18.241 C4.607,18.241 0.654,14.288 0.654,9.413 L0.654,9.413 C0.654,4.538 4.607,0.585 9.482,0.585 L80.103,0.585 C84.978,0.585 88.931,4.538 88.931,9.413 L88.931,9.413 C88.931,14.289 84.978,18.241 80.103,18.241 Z" id="Shape"></path>
                <path d="M9.483,71.207 L80.104,71.207 C84.979,71.207 88.932,75.16 88.932,80.035 L88.932,80.035 C88.932,84.91 84.979,88.863 80.104,88.863 L9.483,88.863 C4.608,88.863 0.655,84.91 0.655,80.035 L0.655,80.035 C0.655,75.159 4.608,71.207 9.483,71.207 Z" id="Shape"></path>
            </g>
            <path d="M0.414,476.69 C0.414,486.44 8.319,494.345 18.069,494.345 L229.931,494.345 C239.681,494.345 247.586,486.44 247.586,476.69 L247.586,459.035 L0.414,459.035 L0.414,476.69 Z" id="Shape" fill="#00BEBE"></path>
        </g>
    </g>
</svg>